Coordinates
version=1
nRows=15
nColumns=34
inDegrees=no

Units are S.I. units (second, meters, Newtons, ...)
If the header above contains a line with 'inDegrees', this indicates whether rotational values are in degrees (yes) or radians (no).

endheader
time	pelvis_tilt	pelvis_list	pelvis_rotation	pelvis_tx	pelvis_ty	pelvis_tz	hip_flexion_r	hip_adduction_r	hip_rotation_r	knee_angle_r	ankle_angle_r	subtalar_angle_r	mtp_angle_r	hip_flexion_l	hip_adduction_l	hip_rotation_l	knee_angle_l	ankle_angle_l	subtalar_angle_l	mtp_angle_l	lumbar_extension	lumbar_bending	lumbar_rotation	arm_flex_r	arm_add_r	arm_rot_r	elbow_flex_r	pro_sup_r	arm_flex_l	arm_add_l	arm_rot_l	elbow_flex_l	pro_sup_l
0	-0.0136504	-0.0625138	0.0332268	-1.07776	1.35081	-0.580372	0.0797836	0.0382739	-0.010193	0.294902	0.259639	0.047983	-0.129736	0.0893769	-0.126892	-0.0872816	0.335442	0.367853	0.355377	-0.129736	-0.312818	0.097944	0.002073	-0.0144248	-0.23472	-0.113911	0.730846	1.7907	-0.067335	-0.215653	0.00764952	0.874121	1.53931
0.01	-0.0272338	-0.0662957	0.0363316	-1.07777	1.34945	-0.580864	0.0972272	0.0411056	-0.0144767	0.300053	0.260686	0.0483512	-0.129736	0.111083	-0.130793	-0.0869134	0.346498	0.372315	0.360535	-0.129736	-0.307255	0.102714	0.000352995	-0.0179537	-0.238423	-0.111899	0.73821	1.78773	-0.0692333	-0.215821	0.00691197	0.879993	1.53621
0.02	-0.0397582	-0.0691209	0.0387358	-1.07769	1.34825	-0.581046	0.112923	0.0434927	-0.01673	0.30427	0.260995	0.0464535	-0.129736	0.130371	-0.133579	-0.08488	0.355712	0.375281	0.36293	-0.129736	-0.303181	0.105702	-0.000712732	-0.0210468	-0.24092	-0.111002	0.744968	1.7824	-0.0710727	-0.216677	0.00507929	0.886615	1.53308
0.03	-0.0512074	-0.0711157	0.0405765	-1.07756	1.34719	-0.581023	0.126978	0.0453758	-0.0176184	0.307744	0.260958	0.0433249	-0.129736	0.14723	-0.135273	-0.0811897	0.363015	0.37698	0.362615	-0.129736	-0.300646	0.107326	-0.00142696	-0.0238746	-0.242707	-0.110829	0.751597	1.77661	-0.0729339	-0.218345	0.00267051	0.893805	1.53084
0.04	-0.0621225	-0.0727271	0.0421345	-1.0774	1.34619	-0.580976	0.14033	0.0468012	-0.01845	0.31105	0.261083	0.0406219	-0.129736	0.162753	-0.13633	-0.0767067	0.369121	0.378197	0.360997	-0.129736	-0.29901	0.108467	-0.00206333	-0.0266406	-0.24438	-0.112252	0.756671	1.78814	-0.0748395	-0.220454	3.90058e-05	0.89975	1.53946
0.05	-0.0734708	-0.0743835	0.043795	-1.07725	1.34508	-0.581015	0.154354	0.0478862	-0.020418	0.314782	0.261713	0.0394302	-0.129736	0.178791	-0.137372	-0.0728823	0.375268	0.379764	0.360358	-0.129736	-0.297126	0.109738	-0.00275241	-0.0294244	-0.246439	-0.11214	0.762961	1.78672	-0.0767751	-0.222345	-0.00236604	0.906657	1.54323
0.06	-0.0854789	-0.0761356	0.0457725	-1.0771	1.34386	-0.581137	0.169393	0.0486346	-0.0239257	0.319135	0.263072	0.0398988	-0.129736	0.195817	-0.138482	-0.0700062	0.381782	0.381737	0.361075	-0.129736	-0.294729	0.111196	-0.00359608	-0.0321741	-0.248699	-0.111052	0.768737	1.78526	-0.0786703	-0.223551	-0.00539153	0.914166	1.5438
0.07	-0.0975255	-0.0775403	0.0477931	-1.07693	1.34264	-0.581256	0.184645	0.0488251	-0.028087	0.323902	0.265082	0.0413353	-0.129736	0.21256	-0.138993	-0.0667993	0.387751	0.38336	0.360942	-0.129736	-0.292529	0.112285	-0.00462827	-0.0348684	-0.250853	-0.109438	0.774317	1.78411	-0.0805591	-0.224828	-0.00876527	0.921665	1.54524
0.08	-0.109299	-0.0783231	0.0494876	-1.07671	1.34145	-0.5813	0.199588	0.0484312	-0.0315651	0.328787	0.267292	0.0427086	-0.129736	0.228324	-0.13866	-0.0629839	0.392761	0.38438	0.359274	-0.129736	-0.290834	0.112645	-0.00567555	-0.0375247	-0.252621	-0.108561	0.77985	1.78435	-0.0824657	-0.227134	-0.0111411	0.929333	1.5458
0.09	-0.12126	-0.0789277	0.050863	-1.07644	1.34023	-0.581289	0.214666	0.0479271	-0.0341166	0.33369	0.269324	0.0435576	-0.129736	0.24405	-0.138366	-0.060422	0.397631	0.385595	0.358803	-0.129736	-0.289004	0.112766	-0.00635401	-0.0402538	-0.253992	-0.108952	0.785026	1.78554	-0.0842345	-0.230234	-0.0120652	0.936638	1.54686
0.1	-0.133508	-0.0797123	0.0519833	-1.07611	1.33893	-0.581262	0.230103	0.0476153	-0.036436	0.338775	0.271177	0.0441789	-0.129736	0.260067	-0.138715	-0.0602393	0.40273	0.387468	0.361216	-0.129736	-0.28686	0.113012	-0.00624547	-0.0431162	-0.255113	-0.108924	0.791472	1.76884	-0.0856722	-0.233401	-0.0119789	0.94449	1.5418
0.11	-0.145263	-0.0801488	0.0526968	-1.07572	1.33767	-0.581228	0.245254	0.0469397	-0.038934	0.344404	0.273159	0.0452466	-0.129736	0.275009	-0.138859	-0.061039	0.407239	0.389333	0.364251	-0.129736	-0.28538	0.112762	-0.00550614	-0.0458327	-0.255832	-0.111193	0.794453	1.77966	-0.0868585	-0.236073	-0.0133108	0.950523	1.54801
0.12	-0.15652	-0.0798576	0.0529387	-1.07525	1.33646	-0.581194	0.260255	0.045482	-0.0412482	0.350892	0.275189	0.0466001	-0.129736	0.288672	-0.138072	-0.0612321	0.410877	0.390739	0.365683	-0.129736	-0.284586	0.111553	-0.00500599	-0.0483212	-0.256922	-0.111091	0.798753	1.77869	-0.0884379	-0.238554	-0.0164033	0.957124	1.5532
0.13	-0.167044	-0.0787421	0.0529378	-1.07471	1.33534	-0.58116	0.274836	0.0430776	-0.0431449	0.358334	0.277588	0.048856	-0.129736	0.300778	-0.136177	-0.0602701	0.4135	0.391335	0.364675	-0.129736	-0.284828	0.109378	-0.00491476	-0.0506511	-0.258113	-0.110065	0.80332	1.77889	-0.0901806	-0.241331	-0.0196943	0.963595	1.56022
0.14	-0.177283	-0.0773175	0.0527658	-1.07406	1.33427	-0.581076	0.289465	0.040369	-0.0444841	0.366636	0.27992	0.051156	-0.129736	0.312123	-0.133899	-0.0584158	0.415619	0.391536	0.362598	-0.129736	-0.285563	0.106773	-0.00468581	-0.0528732	-0.25869	-0.109501	0.807795	1.77844	-0.0916942	-0.244454	-0.0215324	0.969722	1.56622
